<?xml version="1.0" encoding="utf-8"?>
<svg viewBox="50.669 61.897 604.719 115.02" width="604.719" height="115.02" xmlns="http://www.w3.org/2000/svg">
  <path d="M 648.643 9594.983 C 534.643 9537.983 485.643 9404.983 537.643 9290.983 C 564.643 9229.983 701.643 9091.983 728.643 9098.983 C 744.643 9102.983 733.643 9117.983 658.643 9194.983 C 586.643 9268.983 567.643 9294.983 556.643 9334.983 C 522.643 9459.983 619.643 9583.983 751.643 9583.983 C 779.643 9583.983 817.643 9575.983 836.643 9565.983 C 855.643 9556.983 931.643 9489.983 1003.643 9417.983 L 1136.643 9285.983 L 1035.643 9184.983 C 952.643 9101.983 937.643 9082.983 952.643 9076.983 C 966.643 9071.983 995.643 9095.983 1078.643 9177.983 L 1186.643 9285.983 L 1044.643 9428.983 C 950.643 9521.983 884.643 9579.983 852.643 9595.983 C 784.643 9629.983 717.643 9628.983 648.643 9594.983 Z" transform="matrix(0.1, -0.000013, -0.000013, -0.1, 0.118153, 1024.010758)" style="opacity: 0.9;"/>
  <path d="M 624.642 9483.958 C 605.642 9462.958 584.642 9389.958 590.642 9369.958 C 592.642 9361.958 597.642 9343.958 600.642 9327.958 C 607.642 9295.958 672.642 9220.958 692.642 9220.958 C 714.642 9220.958 709.642 9233.958 669.642 9279.958 C 625.642 9331.958 614.642 9397.958 641.642 9449.958 C 660.642 9487.958 649.642 9511.958 624.642 9483.958 Z" transform="matrix(0.1, -0.000013, -0.000013, -0.1, 0.118278, 1024.008177)" style="opacity: 0.9;"/>
  <path d="M 2306.68 9056.196 L 2306.68 8711.196 L 2376.68 8711.196 L 2446.68 8711.196 L 2446.68 8835.196 C 2446.68 8954.196 2447.68 8961.196 2472.68 8990.196 C 2503.68 9028.196 2555.68 9032.196 2586.68 9001.196 C 2604.68 8983.196 2606.68 8968.196 2606.68 8846.196 L 2606.68 8711.196 L 2681.68 8711.196 L 2756.68 8711.196 L 2756.68 8844.196 C 2756.68 8916.196 2751.68 8994.196 2746.68 9016.196 C 2721.68 9124.196 2564.68 9172.196 2472.68 9100.196 L 2446.68 9080.196 L 2446.68 9240.196 L 2446.68 9401.196 L 2376.68 9401.196 L 2306.68 9401.196 L 2306.68 9056.196 Z" transform="matrix(0.1, -0.000013, -0.000013, -0.1, 0.114458, 1024.031989)" style="opacity: 0.9;"/>
  <path d="M 1816.681 9047.135 L 1816.681 8711.135 L 1891.681 8711.135 L 1966.681 8711.135 L 1966.681 8836.135 L 1966.681 8961.135 L 2044.681 8961.135 C 2135.681 8961.135 2186.681 8981.135 2233.681 9034.135 C 2295.681 9105.135 2296.681 9236.135 2235.681 9306.135 C 2187.681 9360.135 2141.681 9373.135 1969.681 9379.135 L 1816.681 9384.135 L 1816.681 9047.135 Z M 2092.681 9227.135 C 2113.681 9209.135 2120.681 9195.135 2120.681 9167.135 C 2120.681 9114.135 2091.681 9089.135 2022.681 9083.135 L 1966.681 9079.135 L 1966.681 9165.135 L 1966.681 9251.135 L 2015.681 9251.135 C 2053.681 9251.135 2071.681 9245.135 2092.681 9227.135 Z" transform="matrix(0.1, -0.000013, -0.000013, -0.1, 0.11435, 1024.025886)" style="opacity: 0.9;"/>
  <path d="M 4619.681 9364.423 C 4615.681 9354.423 4559.681 9216.423 4495.681 9056.423 L 4377.681 8766.423 L 4376.681 8894.423 C 4376.681 8979.423 4371.681 9033.423 4362.681 9055.423 C 4324.681 9145.423 4173.681 9161.423 4102.681 9082.423 L 4084.681 9062.423 L 4055.681 9091.423 C 4002.681 9144.423 3903.681 9148.423 3842.681 9100.423 L 3816.681 9080.423 L 3816.681 9101.423 C 3816.681 9121.423 3811.681 9122.423 3739.681 9121.423 C 3696.681 9121.423 3644.681 9124.423 3623.681 9130.423 C 3574.681 9142.423 3520.681 9128.423 3484.681 9093.423 L 3456.681 9067.423 L 3456.681 9094.423 C 3456.681 9121.423 3455.681 9121.423 3386.681 9121.423 L 3316.681 9121.423 L 3316.681 8916.423 L 3316.681 8711.423 L 3385.681 8711.423 L 3454.681 8711.423 L 3458.681 8842.423 C 3461.681 8965.423 3462.681 8974.423 3485.681 8992.423 C 3510.681 9013.423 3566.681 9017.423 3597.681 9001.423 C 3614.681 8992.423 3619.681 8997.423 3643.681 9048.423 L 3671.681 9106.423 L 3674.681 8909.423 L 3676.681 8711.423 L 3746.681 8711.423 L 3816.681 8711.423 L 3816.681 8844.423 C 3816.681 8998.423 3825.681 9021.423 3881.681 9021.423 C 3905.681 9021.423 3920.681 9014.423 3935.681 8995.423 C 3954.681 8971.423 3956.681 8955.423 3956.681 8840.423 L 3956.681 8711.423 L 4026.681 8711.423 L 4096.681 8711.423 L 4096.681 8846.423 C 4096.681 8968.423 4098.681 8983.423 4116.681 9001.423 C 4145.681 9030.423 4190.681 9027.423 4215.681 8995.423 C 4234.681 8971.423 4236.681 8955.423 4236.681 8839.423 L 4236.681 8710.423 L 4378.681 8713.423 L 4520.681 8716.423 L 4544.681 8779.423 L 4568.681 8841.423 L 4696.681 8841.423 L 4824.681 8841.423 L 4847.681 8775.423 L 4870.681 8710.423 L 4966.681 8710.423 C 5018.681 8710.423 5093.681 8708.423 5131.681 8705.423 C 5219.681 8698.423 5273.681 8712.423 5311.681 8751.423 C 5337.681 8778.423 5341.681 8790.423 5341.681 8838.423 C 5341.681 8889.423 5338.681 8896.423 5304.681 8925.423 C 5283.681 8943.423 5247.681 8963.423 5224.681 8970.423 C 5175.681 8985.423 5156.681 8998.423 5156.681 9016.423 C 5156.681 9037.423 5202.681 9042.423 5248.681 9027.423 C 5271.681 9018.423 5291.681 9013.423 5292.681 9014.423 C 5293.681 9015.423 5303.681 9036.423 5316.681 9060.423 C 5342.681 9111.423 5339.681 9115.423 5257.681 9129.423 C 5151.681 9147.423 5061.681 9118.423 5031.681 9055.423 C 4997.681 8983.423 5032.681 8924.423 5139.681 8877.423 C 5201.681 8849.423 5211.681 8828.423 5171.681 8809.423 C 5151.681 8800.423 5138.681 8802.423 5096.681 8823.423 L 5045.681 8848.423 L 5029.681 8820.423 C 5019.681 8804.423 5009.681 8791.423 5006.681 8791.423 C 5002.681 8791.423 4947.681 8924.423 4882.681 9086.423 L 4764.681 9381.423 L 4695.681 9381.423 C 4638.681 9381.423 4624.681 9378.423 4619.681 9364.423 Z M 4730.681 9083.423 C 4746.681 9041.423 4761.681 9000.423 4763.681 8994.423 C 4767.681 8984.423 4750.681 8981.423 4697.681 8981.423 C 4658.681 8981.423 4626.681 8984.423 4626.681 8987.423 C 4626.681 9001.423 4690.681 9161.423 4695.681 9161.423 C 4698.681 9161.423 4714.681 9126.423 4730.681 9083.423 Z" transform="matrix(0.1, -0.000013, -0.000013, -0.1, 0.114287, 1024.054707)" style="opacity: 0.9;"/>
  <path d="M 5752.649 9358.61 C 5713.649 9319.61 5714.649 9268.61 5752.649 9234.61 C 5805.649 9186.61 5886.649 9223.61 5886.649 9294.61 C 5886.649 9340.61 5860.649 9370.61 5814.649 9377.61 C 5784.649 9382.61 5773.649 9379.61 5752.649 9358.61 Z" transform="matrix(0.1, -0.000013, -0.000013, -0.1, 0.117496, 1024.073361)" style="opacity: 0.9;"/>
  <path d="M 6316.688 9201.685 L 6316.688 9121.685 L 6285.688 9121.685 L 6255.688 9121.685 L 6258.688 9069.685 C 6261.688 9020.685 6263.688 9016.685 6289.688 9013.685 L 6316.688 9010.685 L 6316.688 8913.685 C 6317.688 8749.685 6358.688 8694.685 6478.688 8703.685 C 6557.688 8709.685 6564.688 8718.685 6543.688 8785.685 C 6528.688 8832.685 6523.688 8838.685 6504.688 8833.685 C 6470.688 8825.685 6456.688 8855.685 6456.688 8938.685 L 6456.688 9011.685 L 6501.688 9011.685 L 6546.688 9011.685 L 6546.688 9065.685 L 6546.688 9120.685 L 6504.688 9123.685 L 6461.688 9126.685 L 6458.688 9204.685 L 6455.688 9281.685 L 6386.688 9281.685 L 6316.688 9281.685 L 6316.688 9201.685 Z" transform="matrix(0.1, -0.000013, -0.000013, -0.1, 0.113653, 1024.080939)" style="opacity: 0.9;"/>
  <path d="M 1102.697 9152.037 L 1003.697 9052.037 L 1054.697 8997.037 C 1125.697 8919.037 1156.697 8815.037 1138.697 8718.037 C 1129.697 8672.037 1130.697 8670.037 1161.697 8642.037 C 1206.697 8602.037 1256.697 8588.037 1332.697 8593.037 C 1410.697 8598.037 1466.697 8633.037 1511.697 8706.037 C 1537.697 8748.037 1541.697 8764.037 1541.697 8825.037 C 1541.697 8874.037 1535.697 8907.037 1522.697 8931.037 C 1502.697 8969.037 1228.697 9251.037 1211.697 9251.037 C 1205.697 9251.037 1156.697 9206.037 1102.697 9152.037 Z" transform="matrix(0.1, -0.000013, -0.000013, -0.1, 0.112756, 1024.016078)" style="opacity: 0.9;"/>
  <path d="M 736.668 9173.976 C 736.668 9155.976 792.668 9110.976 815.668 9110.976 L 840.668 9110.976 L 806.668 9145.976 C 776.668 9176.976 736.668 9192.976 736.668 9173.976 Z" transform="matrix(0.1, -0.000013, -0.000013, -0.1, 0.115599, 1024.00996)" style="opacity: 0.9;"/>
  <path d="M 2930.697 9132.257 C 2851.697 9112.257 2795.697 9052.257 2776.697 8968.257 C 2753.697 8863.257 2799.697 8765.257 2895.697 8716.257 C 2942.697 8692.257 3035.697 8699.257 3076.697 8729.257 C 3112.697 8756.257 3116.697 8756.257 3116.697 8731.257 C 3116.697 8713.257 3123.697 8711.257 3186.697 8711.257 L 3256.697 8711.257 L 3256.697 8916.257 L 3256.697 9121.257 L 3181.697 9121.257 C 3122.697 9121.257 3106.697 9118.257 3106.697 9106.257 C 3106.697 9094.257 3100.697 9095.257 3074.697 9110.257 C 3034.697 9133.257 2972.697 9142.257 2930.697 9132.257 Z M 3079.697 8991.257 C 3147.697 8937.257 3107.697 8821.257 3021.697 8821.257 C 2988.697 8821.257 2940.697 8845.257 2932.697 8866.257 C 2917.697 8905.257 2926.697 8962.257 2951.697 8986.257 C 2982.697 9018.257 3042.697 9020.257 3079.697 8991.257 Z" transform="matrix(0.1, -0.000013, -0.000013, -0.1, 0.112725, 1024.038082)" style="opacity: 0.9;"/>
  <path d="M 5516.697 9134.574 C 5423.697 9119.574 5376.697 9076.574 5376.697 9007.574 C 5376.697 8949.574 5401.697 8919.574 5481.697 8882.574 C 5528.697 8860.574 5546.697 8846.574 5546.697 8832.574 C 5546.697 8800.574 5511.697 8797.574 5453.697 8824.574 L 5400.697 8848.574 L 5372.697 8800.574 L 5345.697 8751.574 L 5378.697 8731.574 C 5418.697 8707.574 5482.697 8697.574 5551.697 8704.574 C 5652.697 8714.574 5696.697 8757.574 5696.697 8845.574 C 5696.697 8881.574 5690.697 8895.574 5667.697 8919.574 C 5651.697 8935.574 5623.697 8954.574 5604.697 8960.574 C 5502.697 8998.574 5488.697 9011.574 5525.697 9031.574 C 5545.697 9041.574 5597.697 9035.574 5628.697 9019.574 C 5642.697 9012.574 5649.697 9018.574 5666.697 9050.574 C 5677.697 9072.574 5686.697 9095.574 5686.697 9100.574 C 5686.697 9119.574 5569.697 9142.574 5516.697 9134.574 Z" transform="matrix(0.1, -0.000013, -0.000013, -0.1, 0.11273, 1024.069772)" style="opacity: 0.9;"/>
  <path d="M 6076.697 9134.644 C 5983.697 9119.644 5936.697 9076.644 5936.697 9007.644 C 5936.697 8949.644 5961.697 8919.644 6041.697 8882.644 C 6088.697 8860.644 6106.697 8846.644 6106.697 8832.644 C 6106.697 8800.644 6071.697 8797.644 6013.697 8824.644 L 5960.697 8848.644 L 5932.697 8800.644 L 5905.697 8751.644 L 5938.697 8731.644 C 5978.697 8707.644 6042.697 8697.644 6111.697 8704.644 C 6212.697 8714.644 6256.697 8757.644 6256.697 8845.644 C 6256.697 8881.644 6250.697 8895.644 6227.697 8919.644 C 6211.697 8935.644 6183.697 8954.644 6164.697 8960.644 C 6062.697 8998.644 6048.697 9011.644 6085.697 9031.644 C 6105.697 9041.644 6157.697 9035.644 6188.697 9019.644 C 6202.697 9012.644 6209.697 9018.644 6226.697 9050.644 C 6237.697 9072.644 6246.697 9095.644 6246.697 9100.644 C 6246.697 9119.644 6129.697 9142.644 6076.697 9134.644 Z" transform="matrix(0.1, -0.000013, -0.000013, -0.1, 0.112732, 1024.07685)" style="opacity: 0.9;"/>
  <path d="M 5736.697 8916.61 L 5736.697 8711.61 L 5806.697 8711.61 L 5876.697 8711.61 L 5876.697 8916.61 L 5876.697 9121.61 L 5806.697 9121.61 L 5736.697 9121.61 L 5736.697 8916.61 Z" transform="matrix(0.1, -0.000013, -0.000013, -0.1, 0.112697, 1024.073381)" style="opacity: 0.9;"/>
  <path d="M 720.708 9066.985 C 678.708 9053.985 616.708 9020.985 616.708 9010.985 C 616.708 9007.985 712.708 8909.985 830.708 8791.985 L 1043.708 8578.985 L 1064.708 8607.985 C 1075.708 8623.985 1092.708 8661.985 1101.708 8693.985 C 1166.708 8917.985 943.708 9136.985 720.708 9066.985 Z" transform="matrix(0.1, -0.000013, -0.000013, -0.1, 0.111593, 1024.010924)" style="opacity: 0.9;"/>
  <path d="M 552.721 8938.972 C 514.721 8872.972 506.721 8844.972 506.721 8775.972 C 506.721 8642.972 587.721 8525.972 705.721 8485.972 C 801.721 8453.972 922.721 8473.972 1001.721 8534.972 C 1020.721 8548.972 1012.721 8558.972 806.721 8765.972 C 688.721 8883.972 588.721 8980.972 584.721 8980.972 C 580.721 8980.972 566.721 8961.972 552.721 8938.972 Z" transform="matrix(0.1, -0.000013, -0.000013, -0.1, 0.110283, 1024.009568)" style="opacity: 0.9;"/>
</svg>