<?xml version="1.0" encoding="UTF-8"?>
<!DOCTYPE svg PUBLIC "-//W3C//DTD SVG 1.1//EN" "http://www.w3.org/Graphics/SVG/1.1/DTD/svg11.dtd">
<svg xmlns="http://www.w3.org/2000/svg" version="1.1" width="64px" height="64px" style="shape-rendering:geometricPrecision; text-rendering:geometricPrecision; image-rendering:optimizeQuality; fill-rule:evenodd; clip-rule:evenodd" xmlns:xlink="http://www.w3.org/1999/xlink">
<g><path style="opacity:0.946" fill="#32b0a1" d="M 54.5,5.5 C 56.0174,5.51056 57.1841,6.17723 58,7.5C 58.4583,15.8383 58.2917,24.1717 57.5,32.5C 57.8333,35.5 58.1667,38.5 58.5,41.5C 59.086,41.7093 59.586,42.0426 60,42.5C 60.8151,47.3522 60.6484,52.0189 59.5,56.5C 56.7719,55.7948 53.9386,55.1281 51,54.5C 50.3333,50.5 50.3333,46.5 51,42.5C 52.0113,41.6634 53.1779,41.33 54.5,41.5C 53.9995,31.6573 53.3328,21.8239 52.5,12C 52.4824,9.5897 53.1491,7.42303 54.5,5.5 Z"/></g>
<g><path style="opacity:1" fill="#2e9b8b" d="M 54.5,5.5 C 53.1491,7.42303 52.4824,9.5897 52.5,12C 53.3328,21.8239 53.9995,31.6573 54.5,41.5C 53.1779,41.33 52.0113,41.6634 51,42.5C 50.3333,46.5 50.3333,50.5 51,54.5C 53.9386,55.1281 56.7719,55.7948 59.5,56.5C 58.3077,58.9223 56.3077,59.9223 53.5,59.5C 50.6753,59.8809 48.5087,58.8809 47,56.5C 46.3333,51.8333 46.3333,47.1667 47,42.5C 47.414,42.0426 47.914,41.7093 48.5,41.5C 48.8333,38.5 49.1667,35.5 49.5,32.5C 48.7083,24.1717 48.5417,15.8383 49,7.5C 50.4443,5.84464 52.2776,5.17798 54.5,5.5 Z"/></g>
<g><path style="opacity:1" fill="#4cb3a7" d="M 30.5,10.5 C 24.5,10.5 18.5,10.5 12.5,10.5C 10.8333,10.5 9.16667,10.5 7.5,10.5C 7.5,7.83333 7.5,5.16667 7.5,2.5C 16.8333,2.5 26.1667,2.5 35.5,2.5C 35.5,5.16667 35.5,7.83333 35.5,10.5C 33.8333,10.5 32.1667,10.5 30.5,10.5 Z"/></g>
<g><path style="opacity:1" fill="#ce1743" d="M 12.5,10.5 C 18.5,10.5 24.5,10.5 30.5,10.5C 30.5,11.8333 30.5,13.1667 30.5,14.5C 24.8236,14.3339 19.1569,14.5006 13.5,15C 10.2108,16.4103 8.54411,18.9103 8.5,22.5C 6.5,22.5 4.5,22.5 2.5,22.5C 2.65393,16.0706 5.98726,13.404 12.5,14.5C 12.5,13.1667 12.5,11.8333 12.5,10.5 Z"/></g>
<g><path style="opacity:0.996" fill="#ed1342" d="M 30.5,14.5 C 37.0127,13.404 40.3461,16.0706 40.5,22.5C 29.8333,22.5 19.1667,22.5 8.5,22.5C 8.54411,18.9103 10.2108,16.4103 13.5,15C 19.1569,14.5006 24.8236,14.3339 30.5,14.5 Z"/></g>
<g><path style="opacity:1" fill="#319889" d="M 2.5,22.5 C 4.5,22.5 6.5,22.5 8.5,22.5C 8.5,24.1667 8.5,25.8333 8.5,27.5C 8.33418,32.1785 8.50085,36.8452 9,41.5C 9.23593,43.8113 10.0693,45.8113 11.5,47.5C 13.3974,50.5594 16.0641,52.7261 19.5,54C 26.5803,54.7945 33.5803,54.6278 40.5,53.5C 40.5557,56.5608 39.2224,58.7275 36.5,60C 25.7347,60.9522 15.0681,60.6188 4.5,59C 3.87424,58.2496 3.37424,57.4162 3,56.5C 2.50014,45.1716 2.33348,33.8382 2.5,22.5 Z"/></g>
<g><path style="opacity:1" fill="#32b0a1" d="M 8.5,22.5 C 19.1667,22.5 29.8333,22.5 40.5,22.5C 40.5,32.8333 40.5,43.1667 40.5,53.5C 33.5803,54.6278 26.5803,54.7945 19.5,54C 16.0641,52.7261 13.3974,50.5594 11.5,47.5C 19.1667,47.5 26.8333,47.5 34.5,47.5C 34.5,40.8333 34.5,34.1667 34.5,27.5C 25.8333,27.5 17.1667,27.5 8.5,27.5C 8.5,25.8333 8.5,24.1667 8.5,22.5 Z"/></g>
<g><path style="opacity:1" fill="#88d2d0" d="M 8.5,27.5 C 17.1667,27.5 25.8333,27.5 34.5,27.5C 34.5,34.1667 34.5,40.8333 34.5,47.5C 26.8333,47.5 19.1667,47.5 11.5,47.5C 10.0693,45.8113 9.23593,43.8113 9,41.5C 8.50085,36.8452 8.33418,32.1785 8.5,27.5 Z"/></g>
<g><path style="opacity:1" fill="#eb1b45" d="M 19.5,31.5 C 20.8333,31.5 22.1667,31.5 23.5,31.5C 23.5,32.8333 23.5,34.1667 23.5,35.5C 24.8333,35.5 26.1667,35.5 27.5,35.5C 27.5,36.8333 27.5,38.1667 27.5,39.5C 26.1667,39.5 24.8333,39.5 23.5,39.5C 23.5,40.8333 23.5,42.1667 23.5,43.5C 22.1667,43.5 20.8333,43.5 19.5,43.5C 19.5,42.1667 19.5,40.8333 19.5,39.5C 18.1667,39.5 16.8333,39.5 15.5,39.5C 15.5,38.1667 15.5,36.8333 15.5,35.5C 16.8333,35.5 18.1667,35.5 19.5,35.5C 19.5,34.1667 19.5,32.8333 19.5,31.5 Z"/></g>
</svg>
