<?xml version="1.0" encoding="UTF-8"?>
<!DOCTYPE svg PUBLIC "-//W3C//DTD SVG 1.1//EN" "http://www.w3.org/Graphics/SVG/1.1/DTD/svg11.dtd">
<svg xmlns="http://www.w3.org/2000/svg" version="1.1" width="48px" height="48px" style="shape-rendering:geometricPrecision; text-rendering:geometricPrecision; image-rendering:optimizeQuality; fill-rule:evenodd; clip-rule:evenodd" xmlns:xlink="http://www.w3.org/1999/xlink">
<g><path style="opacity:0.974" fill="#21b8d2" d="M 39.5,21.5 C 36.8445,20.842 34.1778,20.1754 31.5,19.5C 27.9102,20.2985 24.5768,21.6318 21.5,23.5C 21.1667,22.5 20.5,21.8333 19.5,21.5C 18.8333,20.1667 17.8333,19.1667 16.5,18.5C 15.8333,17.5 15.1667,16.5 14.5,15.5C 17.9981,11.1691 21.9981,7.33581 26.5,4C 38.3333,1.83333 43.1667,6.66667 41,18.5C 39.9614,19.2438 39.4614,20.2438 39.5,21.5 Z"/></g>
<g><path style="opacity:1" fill="#dcf5f9" d="M 29.5,6.5 C 37.4604,7.35605 37.4604,8.52272 29.5,10C 26.6159,13.5856 23.2826,16.2522 19.5,18C 19.1667,17.6667 18.8333,17.3333 18.5,17C 22.0622,13.2684 25.7288,9.76837 29.5,6.5 Z"/></g>
<g><path style="opacity:0.953" fill="#e92868" d="M 14.5,15.5 C 15.1667,16.5 15.8333,17.5 16.5,18.5C 13.5375,21.9641 10.3709,25.2975 7,28.5C 6.2937,30.9712 6.62703,33.3046 8,35.5C 9.82816,29.1731 13.6615,24.5065 19.5,21.5C 20.5,21.8333 21.1667,22.5 21.5,23.5C 18.9206,28.8041 18.9206,34.1374 21.5,39.5C 17.4245,41.4423 13.0911,41.9423 8.5,41C 3.72548,37.3449 2.22548,32.5116 4,26.5C 7.00203,22.3319 10.502,18.6652 14.5,15.5 Z"/></g>
<g><path style="opacity:1" fill="#f8dbe5" d="M 16.5,18.5 C 17.8333,19.1667 18.8333,20.1667 19.5,21.5C 13.6615,24.5065 9.82816,29.1731 8,35.5C 6.62703,33.3046 6.2937,30.9712 7,28.5C 10.3709,25.2975 13.5375,21.9641 16.5,18.5 Z"/></g>
<g><path style="opacity:0.898" fill="#b0bbc3" d="M 39.5,21.5 C 43.7442,26.5691 44.5775,32.2358 42,38.5C 35.4468,44.7723 28.6134,45.1057 21.5,39.5C 18.9206,34.1374 18.9206,28.8041 21.5,23.5C 24.5768,21.6318 27.9102,20.2985 31.5,19.5C 34.1778,20.1754 36.8445,20.842 39.5,21.5 Z"/></g>
<g><path style="opacity:1" fill="#d0d9dd" d="M 27.5,21.5 C 40.3292,21.1676 44.1626,26.8343 39,38.5C 27.1071,44.3887 21.4404,40.7221 22,27.5C 23.3597,24.9774 25.193,22.9774 27.5,21.5 Z"/></g>
</svg>
